<svg version="1.1" xmlns="http://www.w3.org/2000/svg" viewBox="0 0 963.470458984375 576.0026986258371" width="963.470458984375" height="576.0026986258371">
  <!-- svg-source:excalidraw -->
  
  <defs>
    <style>
      @font-face {
        font-family: "Virgil";
        src: url("https://excalidraw.com/Virgil.woff2");
      }
      @font-face {
        font-family: "Cascadia";
        src: url("https://excalidraw.com/Cascadia.woff2");
      }
    </style>
  </defs>
  <g stroke-opacity="0.2" fill-opacity="0.2" stroke-linecap="round" transform="translate(10 10) rotate(0 471.7352294921875 278.00134931291853)"><path d="M0 0 L943.47 0 L943.47 556 L0 556" stroke="none" stroke-width="0" fill="#ced4da"></path><path d="M0 0 C218.73 0, 437.46 0, 943.47 0 M943.47 0 C943.47 132.62, 943.47 265.23, 943.47 556 M943.47 556 C685.25 556, 427.04 556, 0 556 M0 556 C0 357.08, 0 158.16, 0 0" stroke="#5c940d" stroke-width="1.5" fill="none" stroke-dasharray="8 9"></path></g><g stroke-linecap="round"><g transform="translate(107.36551552499134 53.11601488041106) rotate(0 1.1235868203191046 88.7190960403607)"><path d="M1.12 0.33 C1.49 29.74, 1.94 147.3, 2 176.77 M0.25 -0.55 C0.53 29, 1.22 148.17, 1.29 177.98" stroke="#000000" stroke-width="1" fill="none"></path></g></g><g stroke-linecap="round"><g transform="translate(63.43273673747882 205.74651530726175) rotate(0 136.05403953166916 -0.5268315921731244)"><path d="M0.9 0.47 C46.18 0.14, 226.85 -1.12, 272.2 -1.53 M-0.09 -0.32 C44.99 -0.51, 225.78 0.05, 271.22 -0.06" stroke="#000000" stroke-width="1" fill="none"></path></g></g><g stroke-linecap="round"><g transform="translate(118.93653316564132 175.5300163452548) rotate(0 102.80098008392375 -39.368023211873094)"><path d="M1.14 0.81 C1.85 -0.56, 2.26 -2.21, 3.67 -7.27 C5.09 -12.32, 7.48 -24.21, 9.62 -29.53 C11.76 -34.85, 13.74 -33.69, 16.5 -39.18 C19.26 -44.67, 21.91 -56.15, 26.16 -62.46 C30.41 -68.77, 37.29 -74.66, 42 -77.02 C46.71 -79.38, 49.2 -78.93, 54.44 -76.61 C59.68 -74.29, 69.39 -66.96, 73.44 -63.11 C77.49 -59.26, 75.37 -58.37, 78.72 -53.51 C82.08 -48.65, 89.63 -38.19, 93.56 -33.96 C97.48 -29.73, 98.38 -30, 102.28 -28.13 C106.18 -26.26, 109.3 -24.98, 116.95 -22.73 C124.61 -20.47, 139.4 -15.73, 148.21 -14.61 C157.02 -13.5, 163.25 -16, 169.81 -16.02 C176.38 -16.03, 181.73 -14.61, 187.58 -14.7 C193.43 -14.8, 201.93 -16.23, 204.91 -16.59 M0.27 0.18 C0.97 -1.6, 1.75 -4.29, 3.21 -9 C4.68 -13.72, 6.74 -22.73, 9.07 -28.1 C11.4 -33.48, 14.54 -35.61, 17.18 -41.26 C19.81 -46.9, 21.1 -55.85, 24.89 -61.97 C28.68 -68.1, 34.9 -75.43, 39.91 -77.99 C44.92 -80.55, 49.59 -79.68, 54.96 -77.34 C60.33 -74.99, 67.92 -67.67, 72.14 -63.9 C76.36 -60.14, 77.1 -59.6, 80.27 -54.73 C83.44 -49.86, 87.46 -39.25, 91.17 -34.68 C94.87 -30.11, 97.93 -29.21, 102.51 -27.28 C107.09 -25.36, 110.99 -25.18, 118.65 -23.15 C126.31 -21.12, 140.08 -16.3, 148.46 -15.12 C156.85 -13.93, 162.49 -15.96, 168.96 -16.02 C175.43 -16.08, 181.23 -15.57, 187.29 -15.47 C193.35 -15.37, 201.97 -15.27, 205.33 -15.42" stroke="#5c940d" stroke-width="1" fill="none"></path></g></g><g stroke-linecap="round"><g transform="translate(119.63549251622726 187.32153551029387) rotate(0 103.40394700068052 -39.82781714513712)"><path d="M-0.3 -1.06 C0.24 -2.21, 1.99 -2.72, 3.53 -7.49 C5.07 -12.25, 6.84 -24.26, 8.93 -29.64 C11.02 -35.02, 13.09 -34.32, 16.06 -39.76 C19.03 -45.2, 22.27 -55.88, 26.74 -62.29 C31.2 -68.7, 38.07 -75.44, 42.86 -78.21 C47.66 -80.98, 50.35 -81.64, 55.51 -78.93 C60.68 -76.21, 69.94 -66.19, 73.82 -61.92 C77.71 -57.66, 75.53 -57.92, 78.85 -53.33 C82.16 -48.74, 89.79 -38.64, 93.7 -34.37 C97.61 -30.11, 98.38 -29.82, 102.32 -27.74 C106.25 -25.66, 109.83 -24.09, 117.3 -21.9 C124.77 -19.7, 138.49 -15.42, 147.14 -14.58 C155.8 -13.74, 162.44 -16.87, 169.23 -16.85 C176.02 -16.83, 181.77 -14.52, 187.91 -14.44 C194.05 -14.36, 202.96 -16.23, 206.07 -16.36 M1.75 0.99 C2.17 -0.46, 1.95 -4.46, 3 -9.34 C4.04 -14.21, 5.77 -23.41, 8.02 -28.26 C10.27 -33.12, 13.55 -32.91, 16.51 -38.48 C19.46 -44.06, 21.65 -55.44, 25.77 -61.72 C29.89 -67.99, 36.7 -73.56, 41.23 -76.14 C45.75 -78.72, 47.69 -79.55, 52.94 -77.21 C58.19 -74.86, 68.15 -65.88, 72.73 -62.09 C77.32 -58.3, 77.35 -59.53, 80.46 -54.45 C83.57 -49.38, 87.7 -36.28, 91.38 -31.66 C95.07 -27.03, 97.93 -28.33, 102.57 -26.7 C107.2 -25.07, 111.8 -23.82, 119.17 -21.88 C126.55 -19.94, 138.08 -15.83, 146.84 -15.07 C155.6 -14.3, 164.91 -17.29, 171.73 -17.29 C178.56 -17.29, 181.9 -15.44, 187.79 -15.07 C193.69 -14.7, 204.15 -14.66, 207.11 -15.08" stroke="#a61e4d" stroke-width="1" fill="none"></path></g></g><g stroke-linecap="round"><g transform="translate(123.74804134435226 169.81317369388762) rotate(0 103.12092878190799 -39.81606699072421)"><path d="M0.73 0.55 C0.99 -0.78, 0.92 -1.68, 2.26 -6.88 C3.61 -12.07, 6.73 -25.09, 8.82 -30.62 C10.91 -36.15, 11.99 -34.93, 14.79 -40.08 C17.6 -45.22, 21.12 -55.25, 25.67 -61.48 C30.22 -67.72, 37.42 -74.63, 42.09 -77.48 C46.76 -80.33, 48.58 -81.29, 53.71 -78.58 C58.84 -75.87, 68.67 -65.52, 72.88 -61.22 C77.09 -56.91, 75.57 -57.44, 78.95 -52.73 C82.33 -48.03, 89.28 -37.12, 93.16 -33 C97.03 -28.88, 97.92 -29.82, 102.22 -28.02 C106.52 -26.22, 111.48 -24.15, 118.97 -22.19 C126.46 -20.24, 138.84 -17.15, 147.17 -16.29 C155.5 -15.42, 162.07 -17.19, 168.95 -17 C175.83 -16.82, 182.3 -15.08, 188.43 -15.18 C194.56 -15.28, 202.87 -17.31, 205.73 -17.59 M-0.35 -0.2 C-0.35 -1.33, -0.3 -3.48, 1.06 -8.41 C2.43 -13.33, 5.61 -24.67, 7.86 -29.76 C10.11 -34.85, 11.86 -33.23, 14.57 -38.96 C17.29 -44.69, 19.9 -57.52, 24.14 -64.14 C28.39 -70.77, 35.1 -76.6, 40.05 -78.69 C45 -80.78, 48.02 -79.62, 53.84 -76.68 C59.66 -73.73, 70.49 -64.87, 74.95 -61.02 C79.42 -57.16, 77.4 -58.17, 80.61 -53.54 C83.82 -48.91, 90.58 -37.62, 94.22 -33.22 C97.85 -28.82, 98.44 -28.93, 102.42 -27.12 C106.39 -25.3, 110.64 -24.52, 118.06 -22.34 C125.47 -20.15, 138.01 -14.81, 146.89 -14.01 C155.76 -13.21, 164.36 -17.77, 171.31 -17.53 C178.26 -17.28, 182.71 -12.63, 188.59 -12.54 C194.47 -12.44, 203.4 -16.31, 206.59 -16.94" stroke="#e67700" stroke-width="1" fill="none"></path></g></g><g stroke-linecap="round"><g transform="translate(122.71673030919601 179.16168443607518) rotate(0 102.4147018699627 -64.37647626093911)"><path d="M-0.72 -0.9 C-0.25 -3.08, 2.11 -4.73, 3.62 -12.69 C5.13 -20.64, 6.43 -39.74, 8.35 -48.64 C10.27 -57.55, 12.09 -57.39, 15.14 -66.11 C18.19 -74.83, 22.08 -91, 26.65 -100.94 C31.22 -110.88, 37.7 -121.59, 42.57 -125.76 C47.44 -129.92, 50.54 -130.15, 55.86 -125.94 C61.18 -121.73, 70.45 -107.07, 74.48 -100.51 C78.51 -93.95, 76.92 -94.16, 80.02 -86.57 C83.12 -78.97, 89.49 -61.89, 93.08 -54.95 C96.68 -48.02, 97.26 -48.06, 101.59 -44.94 C105.93 -41.83, 111.49 -39.47, 119.07 -36.26 C126.65 -33.05, 138.62 -27.11, 147.06 -25.69 C155.5 -24.27, 162.91 -28.26, 169.71 -27.74 C176.51 -27.21, 181.98 -22.81, 187.87 -22.55 C193.76 -22.29, 201.95 -25.31, 205.05 -26.18 M1.11 1.24 C1.43 -1.36, 1.52 -6.52, 3.14 -14.63 C4.75 -22.75, 8.8 -38.97, 10.79 -47.44 C12.79 -55.91, 12.62 -56.07, 15.1 -65.44 C17.57 -74.81, 21.36 -93.43, 25.64 -103.66 C29.92 -113.9, 36.14 -122.99, 40.78 -126.87 C45.42 -130.74, 47.97 -131.32, 53.47 -126.91 C58.96 -122.5, 69.54 -107.01, 73.73 -100.42 C77.92 -93.84, 75.2 -94.85, 78.59 -87.39 C81.99 -79.93, 90.3 -62.95, 94.11 -55.68 C97.92 -48.4, 97.44 -46.98, 101.46 -43.75 C105.48 -40.52, 110.67 -39.7, 118.21 -36.3 C125.76 -32.9, 138.28 -25.24, 146.71 -23.33 C155.14 -21.42, 161.96 -24.94, 168.8 -24.84 C175.64 -24.74, 181.61 -22.15, 187.73 -22.72 C193.85 -23.3, 202.61 -27.47, 205.54 -28.28" stroke="#364fc7" stroke-width="1" fill="none"></path></g></g><g transform="translate(180.43021602696945 215.2162956421298) rotate(0 22.5 12.5)"><text x="0" y="18" font-family="Virgil, Segoe UI Emoji" font-size="20px" fill="#000000" text-anchor="start" style="white-space: pre;" direction="ltr">Time</text></g><g transform="translate(30.607675743766322 117.07078782962981) rotate(270.276618259132 58.5 12.5)"><text x="0" y="18" font-family="Virgil, Segoe UI Emoji" font-size="20px" fill="#000000" text-anchor="start" style="white-space: pre;" direction="ltr">biomarker x1</text></g><g stroke-linecap="round"><g transform="translate(303.74317902064513 525.5410503559501) rotate(0 135.26352632043188 -1.2066073301442088)"><path d="M-0.09 -0.49 C45.13 -0.87, 226.81 -1.84, 272.12 -1.92 M-1.59 -1.8 C43.39 -2.04, 225.72 -0.44, 271.1 -0.66" stroke="#000000" stroke-width="1" fill="none"></path></g></g><g transform="translate(420.7406583101358 535.0108306908181) rotate(0 22.5 12.5)"><text x="0" y="18" font-family="Virgil, Segoe UI Emoji" font-size="20px" fill="#000000" text-anchor="start" style="white-space: pre;" direction="ltr">Time</text></g><g transform="translate(394.0577052199585 295.9456107194232) rotate(358.7509643445339 49 25.00000000000003)"><text x="0" y="18" font-family="Virgil, Segoe UI Emoji" font-size="20px" fill="#000000" text-anchor="start" style="white-space: pre;" direction="ltr">Event/obs</text><text x="0" y="43" font-family="Virgil, Segoe UI Emoji" font-size="20px" fill="#000000" text-anchor="start" style="white-space: pre;" direction="ltr"> stopped</text></g><g transform="translate(417.3279821402507 245.13756167772988) rotate(0 12 22.5)"><text x="0" y="32" font-family="Virgil, Segoe UI Emoji" font-size="36px" fill="#000000" text-anchor="start" style="white-space: pre;" direction="ltr">+</text></g><g transform="translate(367.27761516640874 72.83925182280291) rotate(0 22.5 10)"><text x="0" y="14" font-family="Virgil, Segoe UI Emoji" font-size="16px" fill="#364fc7" text-anchor="start" style="white-space: pre;" direction="ltr">subj 1</text></g><g transform="translate(367.93105754922124 96.08674938139666) rotate(0 26 10)"><text x="0" y="14" font-family="Virgil, Segoe UI Emoji" font-size="16px" fill="#e67700" text-anchor="start" style="white-space: pre;" direction="ltr">subj 2</text></g><g transform="translate(369.58706340859624 121.68168956694353) rotate(0 25.5 10)"><text x="0" y="14" font-family="Virgil, Segoe UI Emoji" font-size="16px" fill="#5c940d" text-anchor="start" style="white-space: pre;" direction="ltr">subj 3</text></g><g transform="translate(370.84072551797124 146.42888194975603) rotate(0 25 10)"><text x="0" y="14" font-family="Virgil, Segoe UI Emoji" font-size="16px" fill="#a61e4d" text-anchor="start" style="white-space: pre;" direction="ltr">subj 4</text></g><g stroke-linecap="round"><g transform="translate(524.1716827668002 46.079933248304485) rotate(0 0.21598561719224563 88.5447526743897)"><path d="M-0.96 -0.94 C-0.66 28.88, 0.81 148.34, 1.4 178.02 M0.73 1.19 C0.9 30.73, 0.11 146.71, 0.38 176.24" stroke="#000000" stroke-width="1" fill="none"></path></g></g><g stroke-linecap="round"><g transform="translate(480.2389039792878 198.71043367515512) rotate(0 135.97183754272055 -1.041377231773339)"><path d="M-0.94 -0.14 C44.69 -0.04, 227.39 -0.27, 272.88 -0.38 M0.77 -1.26 C46.37 -1.39, 227.21 -1.71, 272.27 -1.97" stroke="#000000" stroke-width="1" fill="none"></path></g></g><g stroke-linecap="round"><g transform="translate(535.7427004074501 168.49393471314824) rotate(0 103.05622373484073 -39.27572793391644)"><path d="M-0.14 0.64 C0.65 -0.58, 2.1 -3.2, 3.76 -8.23 C5.42 -13.26, 7.78 -24.06, 9.82 -29.54 C11.86 -35.03, 13.15 -35.53, 16 -41.15 C18.85 -46.76, 22.52 -57.1, 26.92 -63.22 C31.32 -69.35, 37.6 -75.64, 42.39 -77.88 C47.17 -80.12, 50.25 -79.34, 55.63 -76.65 C61.02 -73.96, 70.52 -65.74, 74.68 -61.76 C78.84 -57.77, 77.62 -57.55, 80.59 -52.73 C83.55 -47.92, 88.8 -37.19, 92.47 -32.87 C96.14 -28.56, 98.43 -28.42, 102.62 -26.84 C106.81 -25.25, 109.86 -25.37, 117.62 -23.37 C125.38 -21.38, 140.45 -16, 149.17 -14.87 C157.89 -13.74, 163.47 -16.66, 169.95 -16.61 C176.42 -16.55, 182 -14.45, 188.05 -14.53 C194.1 -14.61, 203.36 -16.78, 206.25 -17.1" stroke="#5c940d" stroke-width="1.5" fill="none" stroke-dasharray="8 9"></path></g></g><g stroke-linecap="round"><g transform="translate(536.441659758036 180.2854538781873) rotate(0 103.02042964436117 -38.77834386107028)"><path d="M0.64 1.01 C1.21 -0.19, 1.05 -2.31, 2.51 -7.38 C3.98 -12.45, 7.38 -24.17, 9.4 -29.43 C11.42 -34.69, 12 -33.53, 14.64 -38.95 C17.27 -44.37, 20.81 -55.75, 25.2 -61.96 C29.59 -68.17, 35.88 -73.69, 40.98 -76.2 C46.09 -78.72, 50.25 -79.57, 55.83 -77.07 C61.4 -74.57, 70.3 -65.07, 74.44 -61.22 C78.58 -57.37, 77.53 -58.61, 80.66 -53.96 C83.78 -49.3, 89.36 -37.56, 93.16 -33.28 C96.97 -28.99, 99.44 -30.18, 103.48 -28.25 C107.51 -26.32, 109.86 -23.86, 117.37 -21.71 C124.87 -19.56, 139.76 -16.15, 148.51 -15.37 C157.26 -14.6, 163.18 -17.29, 169.85 -17.08 C176.53 -16.87, 182.61 -14.12, 188.53 -14.13 C194.46 -14.13, 202.48 -16.89, 205.4 -17.11" stroke="#a61e4d" stroke-width="1.5" fill="none" stroke-dasharray="8 9"></path></g></g><g stroke-linecap="round"><g transform="translate(540.554208586161 162.77709206178105) rotate(0 103.2038881029934 -39.40979863146245)"><path d="M1.01 -0.23 C1.6 -1.63, 1.95 -2.7, 3.36 -7.8 C4.78 -12.89, 7.27 -25.31, 9.51 -30.79 C11.76 -36.27, 14 -35.25, 16.83 -40.68 C19.65 -46.1, 22.16 -57.47, 26.47 -63.36 C30.77 -69.25, 37.84 -73.69, 42.66 -76.01 C47.48 -78.34, 50.02 -79.78, 55.4 -77.31 C60.79 -74.83, 70.97 -65.16, 74.98 -61.15 C78.98 -57.14, 76.47 -58.05, 79.43 -53.26 C82.4 -48.47, 88.99 -36.55, 92.76 -32.42 C96.53 -28.29, 97.68 -30.17, 102.06 -28.5 C106.44 -26.82, 111.37 -24.55, 119.03 -22.37 C126.69 -20.2, 139.61 -16.43, 148 -15.47 C156.4 -14.5, 162.56 -16.68, 169.39 -16.59 C176.21 -16.51, 182.94 -15, 188.94 -14.97 C194.94 -14.94, 202.37 -16.36, 205.39 -16.42" stroke="#e67700" stroke-width="1.5" fill="none" stroke-dasharray="8 9"></path></g></g><g stroke-linecap="round"><g transform="translate(539.5228975510048 172.12560280396855) rotate(0 102.92714473940435 -63.82026474551621)"><path d="M-0.23 0.62 C0.16 -1.67, 1.55 -4.73, 2.95 -12.71 C4.34 -20.69, 6.12 -38.63, 8.15 -47.28 C10.18 -55.93, 12.29 -55.63, 15.11 -64.59 C17.92 -73.55, 20.44 -90.98, 25.06 -101.03 C29.68 -111.08, 37.83 -120.79, 42.85 -124.89 C47.87 -128.99, 49.8 -129.53, 55.17 -125.63 C60.53 -121.72, 70.88 -107.82, 75.04 -101.46 C79.2 -95.1, 77.03 -95.24, 80.13 -87.47 C83.23 -79.7, 90 -62.02, 93.62 -54.83 C97.23 -47.64, 97.69 -47.28, 101.82 -44.33 C105.94 -41.38, 110.68 -40.29, 118.37 -37.15 C126.05 -34.01, 139.33 -27.28, 147.91 -25.5 C156.5 -23.72, 163.17 -26.72, 169.87 -26.47 C176.56 -26.21, 182.06 -24.09, 188.09 -23.97 C194.13 -23.84, 202.9 -25.43, 206.08 -25.74" stroke="#364fc7" stroke-width="1.5" fill="none" stroke-dasharray="8 9"></path></g></g><g transform="translate(597.2363832687782 208.1802140100233) rotate(0 22.5 12.5)"><text x="0" y="18" font-family="Virgil, Segoe UI Emoji" font-size="20px" fill="#000000" text-anchor="start" style="white-space: pre;" direction="ltr">Time</text></g><g transform="translate(442.935568448445 105.53475864179961) rotate(270.276618259132 63 12.5)"><text x="0" y="18" font-family="Virgil, Segoe UI Emoji" font-size="20px" fill="#000000" text-anchor="start" style="white-space: pre;" direction="ltr">biomarker x2</text></g><g transform="translate(784.0837824082178 65.80317019069633) rotate(0 22.5 10)"><text x="0" y="14" font-family="Virgil, Segoe UI Emoji" font-size="16px" fill="#364fc7" text-anchor="start" style="white-space: pre;" direction="ltr">subj 1</text></g><g transform="translate(784.7372247910303 89.05066774929008) rotate(0 26 10)"><text x="0" y="14" font-family="Virgil, Segoe UI Emoji" font-size="16px" fill="#e67700" text-anchor="start" style="white-space: pre;" direction="ltr">subj 2</text></g><g transform="translate(786.3932306504053 114.64560793483696) rotate(0 25.5 10)"><text x="0" y="14" font-family="Virgil, Segoe UI Emoji" font-size="16px" fill="#5c940d" text-anchor="start" style="white-space: pre;" direction="ltr">subj 3</text></g><g transform="translate(787.6468927597803 139.39280031764946) rotate(0 25 10)"><text x="0" y="14" font-family="Virgil, Segoe UI Emoji" font-size="16px" fill="#a61e4d" text-anchor="start" style="white-space: pre;" direction="ltr">subj 4</text></g><g stroke-linecap="round"><g transform="translate(366.37140493173774 516.4954701492559) rotate(0 0.0902643377129948 -73.40317466042268)"><path d="M0 0 C0.03 -21.49, 0.15 -104.46, 0.17 -128.93 C0.2 -153.4, 0.14 -143.83, 0.14 -146.81" stroke="#364fc7" stroke-width="1.5" fill="none" stroke-dasharray="1.5 7"></path></g></g><g stroke-linecap="round"><g transform="translate(428.300498228171 515.5766902647927) rotate(0 -0.4199375250402113 -72.90787330040575)"><path d="M0 0 C-0.07 -10.39, -0.27 -38.02, -0.41 -62.32 C-0.55 -86.62, -0.77 -131.9, -0.84 -145.82" stroke="#e67700" stroke-width="1.5" fill="none" stroke-dasharray="1.5 7"></path></g></g><g stroke-linecap="round"><g transform="translate(504.17683680455275 516.4061985860617) rotate(0 -0.5714918016554975 -73.69442012760192)"><path d="M0 0 C-0.08 -6.89, -0.28 -16.75, -0.47 -41.32 C-0.66 -65.88, -1.03 -129.71, -1.14 -147.39" stroke="#a61e4d" stroke-width="1.5" fill="none" stroke-dasharray="1.5 7"></path></g></g><g stroke-linecap="round"><g transform="translate(540.3974965362597 514.8842044465748) rotate(0 -0.821542450876052 -69.3758808482778)"><path d="M0 0 C-0.11 -6.48, -0.4 -15.77, -0.67 -38.89 C-0.94 -62.02, -1.48 -122.11, -1.64 -138.75" stroke="#5c940d" stroke-width="1.5" fill="none" stroke-dasharray="1.5 7"></path></g></g><g stroke-linecap="round"><g transform="translate(349.9684657726194 374.48612751956034) rotate(0 0.3352103043643524 88.96966444902876)"><path d="M0.36 0.95 C0.72 30.3, 1.57 147.06, 1.58 176.48 M-0.91 0.4 C-0.65 29.84, 0.04 147.8, 0.66 177.54" stroke="#000000" stroke-width="1" fill="none"></path></g></g></svg>