<svg version="1.1" xmlns="http://www.w3.org/2000/svg" viewBox="0 0 961.3814197887076 530.5687210281176" width="961.3814197887076" height="530.5687210281176">
  <!-- svg-source:excalidraw -->
  
  <defs>
    <style>
      @font-face {
        font-family: "Virgil";
        src: url("https://excalidraw.com/Virgil.woff2");
      }
      @font-face {
        font-family: "Cascadia";
        src: url("https://excalidraw.com/Cascadia.woff2");
      }
    </style>
  </defs>
  <g stroke-opacity="0.1" fill-opacity="0.1" stroke-linecap="round" transform="translate(10 10) rotate(0 470.6907098943538 253.10294510482197)"><path d="M0 0 L941.38 0 L941.38 506.21 L0 506.21" stroke="none" stroke-width="0" fill="#4c6ef5"></path><path d="M0 0 C373.25 0, 746.49 0, 941.38 0 M941.38 0 C941.38 178.69, 941.38 357.38, 941.38 506.21 M941.38 506.21 C644.85 506.21, 348.32 506.21, 0 506.21 M0 506.21 C0 381.66, 0 257.11, 0 0" stroke="#5c940d" stroke-width="1.5" fill="none" stroke-dasharray="8 9"></path></g><g stroke-linecap="round"><g transform="translate(94.93433184064031 43.91789152902231) rotate(0 0.029451603247451885 88.77923809551459)"><path d="M0.34 -0.09 C0.38 29.32, 0.93 147.77, 1.04 177.26 M-0.94 -1.18 C-1.18 28.35, -0.31 148.88, -0.16 178.74" stroke="#000000" stroke-width="1" fill="none"></path></g></g><g stroke-linecap="round"><g transform="translate(50.11445806274088 194.02625271683382) rotate(0 136.24544571466043 -0.8742717483023057)"><path d="M-0.46 0 C45.18 -0.05, 227.41 0.12, 272.95 -0.23 M1.5 -1.05 C47.13 -1.4, 227.25 -1.72, 272.38 -1.75" stroke="#000000" stroke-width="1" fill="none"></path></g></g><g stroke-linecap="round"><g transform="translate(105.61825449090327 163.80975375482694) rotate(0 102.5701736271754 -39.70375222526491)"><path d="M0 0.71 C0.64 -0.46, 2.49 -2.58, 3.9 -7.48 C5.31 -12.38, 6.66 -23.27, 8.44 -28.7 C10.22 -34.13, 11.89 -34.46, 14.58 -40.06 C17.28 -45.66, 20.14 -55.95, 24.61 -62.28 C29.09 -68.61, 36.59 -75.37, 41.42 -78.03 C46.24 -80.69, 48.03 -80.87, 53.57 -78.23 C59.11 -75.58, 70.45 -66.05, 74.65 -62.14 C78.84 -58.24, 75.68 -59.65, 78.73 -54.79 C81.79 -49.92, 88.97 -37.41, 92.97 -32.95 C96.96 -28.5, 98.57 -29.61, 102.73 -28.06 C106.89 -26.51, 110.34 -25.76, 117.91 -23.64 C125.49 -21.51, 139.57 -16.45, 148.19 -15.31 C156.81 -14.17, 162.92 -17.05, 169.61 -16.79 C176.3 -16.54, 182.29 -13.76, 188.32 -13.76 C194.34 -13.75, 202.85 -16.31, 205.74 -16.78 M-1.46 0.04 C-0.88 -1.46, 1.49 -4.25, 3.56 -9.34 C5.63 -14.42, 9.15 -25.56, 10.94 -30.49 C12.72 -35.42, 11.71 -33.74, 14.25 -38.94 C16.8 -44.14, 21.45 -55.55, 26.19 -61.7 C30.93 -67.85, 38.11 -73.46, 42.68 -75.86 C47.26 -78.27, 48.41 -78.38, 53.63 -76.14 C58.85 -73.9, 69.55 -66.29, 73.99 -62.43 C78.43 -58.58, 76.96 -57.89, 80.29 -53.01 C83.61 -48.13, 90.11 -37.46, 93.93 -33.15 C97.74 -28.85, 99.44 -28.62, 103.19 -27.18 C106.95 -25.75, 108.91 -26.38, 116.45 -24.54 C123.99 -22.71, 139.74 -17.39, 148.44 -16.17 C157.14 -14.95, 161.99 -17.57, 168.65 -17.21 C175.31 -16.85, 182.09 -14.27, 188.41 -14.02 C194.74 -13.77, 203.37 -15.4, 206.6 -15.7" stroke="#5c940d" stroke-width="1" fill="none"></path></g></g><g stroke-linecap="round"><g stroke-opacity="0.3" fill-opacity="0.3" transform="translate(106.3172138414892 175.601272919866) rotate(0 103.10036409853024 -39.22490371228753)"><path d="M0.71 1.16 C1.33 -0.3, 1.67 -3.43, 3.26 -8.76 C4.85 -14.09, 8.17 -25.43, 10.25 -30.84 C12.32 -36.26, 13.07 -35.92, 15.72 -41.26 C18.37 -46.61, 21.96 -56.76, 26.14 -62.93 C30.33 -69.1, 36.15 -75.91, 40.84 -78.27 C45.52 -80.63, 48.71 -79.63, 54.25 -77.1 C59.78 -74.57, 69.99 -67.01, 74.05 -63.07 C78.11 -59.13, 75.43 -58.44, 78.6 -53.46 C81.77 -48.48, 89.14 -37.42, 93.08 -33.17 C97.02 -28.92, 98.25 -29.7, 102.25 -27.95 C106.26 -26.21, 109.47 -24.73, 117.1 -22.69 C124.74 -20.65, 139.31 -16.69, 148.07 -15.71 C156.83 -14.73, 162.8 -16.99, 169.67 -16.81 C176.54 -16.63, 183.3 -14.63, 189.31 -14.64 C195.32 -14.64, 202.95 -16.54, 205.73 -16.87 M-0.38 0.72 C0.17 -0.6, 0.85 -2.48, 2.58 -7.62 C4.32 -12.76, 7.8 -24.58, 10.03 -30.11 C12.26 -35.63, 13.51 -35.34, 15.99 -40.77 C18.46 -46.2, 20.56 -56.78, 24.86 -62.69 C29.16 -68.6, 36.83 -73.67, 41.79 -76.23 C46.76 -78.8, 49.45 -80.14, 54.67 -78.08 C59.88 -76.02, 68.84 -67.76, 73.08 -63.85 C77.32 -59.95, 76.58 -59.71, 80.09 -54.65 C83.59 -49.59, 90.37 -38.08, 94.1 -33.48 C97.84 -28.87, 98.34 -28.75, 102.47 -27.02 C106.59 -25.29, 111.24 -24.8, 118.87 -23.1 C126.5 -21.39, 139.95 -17.76, 148.26 -16.79 C156.57 -15.81, 161.8 -17.47, 168.74 -17.23 C175.68 -17, 183.62 -15.6, 189.93 -15.37 C196.23 -15.13, 204.13 -15.76, 206.58 -15.84" stroke="#a61e4d" stroke-width="1" fill="none"></path></g></g><g stroke-linecap="round"><g stroke-opacity="0.2" fill-opacity="0.2" transform="translate(110.4297626696142 158.09291110345976) rotate(0 103.37460686955598 -40.14741564331575)"><path d="M1.16 0.52 C1.49 -0.76, 0.83 -1.92, 1.98 -6.95 C3.14 -11.99, 6.01 -24.24, 8.1 -29.71 C10.19 -35.17, 11.62 -34.1, 14.52 -39.73 C17.42 -45.37, 21.15 -57.2, 25.5 -63.51 C29.84 -69.82, 35.61 -75.23, 40.59 -77.59 C45.57 -79.95, 49.95 -80.09, 55.37 -77.7 C60.79 -75.3, 69.03 -67.26, 73.12 -63.2 C77.21 -59.15, 76.64 -58.27, 79.93 -53.34 C83.22 -48.42, 89.13 -37.74, 92.87 -33.64 C96.61 -29.55, 98.16 -30.57, 102.36 -28.77 C106.56 -26.96, 110.5 -24.99, 118.05 -22.81 C125.6 -20.62, 139.07 -16.82, 147.67 -15.65 C156.27 -14.49, 162.86 -15.98, 169.65 -15.82 C176.45 -15.65, 182.43 -14.53, 188.43 -14.65 C194.43 -14.77, 202.72 -16.17, 205.64 -16.55 M0.31 -0.26 C1.02 -1.91, 2.61 -3.84, 4.3 -8.53 C5.98 -13.21, 8.77 -23.39, 10.41 -28.37 C12.06 -33.36, 11.3 -32.57, 14.15 -38.44 C17.01 -44.31, 22.99 -56.84, 27.54 -63.57 C32.08 -70.31, 36.62 -76.29, 41.42 -78.86 C46.23 -81.42, 50.73 -81.46, 56.38 -78.99 C62.03 -76.52, 71.64 -68.14, 75.32 -64.05 C79 -59.96, 75.37 -59.45, 78.45 -54.47 C81.53 -49.5, 89.75 -38.57, 93.78 -34.2 C97.81 -29.83, 98.82 -30.08, 102.63 -28.26 C106.44 -26.44, 109.15 -25.2, 116.66 -23.27 C124.16 -21.35, 138.97 -17.96, 147.64 -16.7 C156.32 -15.44, 161.89 -15.94, 168.72 -15.72 C175.54 -15.5, 182.3 -15.45, 188.59 -15.39 C194.87 -15.33, 203.77 -15.18, 206.44 -15.36" stroke="#e67700" stroke-width="1" fill="none"></path></g></g><g stroke-linecap="round"><g stroke-opacity="0.1" fill-opacity="0.1" transform="translate(109.46771728905082 167.1643499795249) rotate(0 103.1274070533924 -64.00914606372993)"><path d="M0.52 -0.76 C1.03 -3.31, 2.34 -5.99, 3.79 -14.13 C5.24 -22.26, 7.19 -41.01, 9.24 -49.59 C11.28 -58.16, 13.43 -56.64, 16.05 -65.56 C18.66 -74.48, 20.71 -93.2, 24.91 -103.09 C29.12 -112.99, 36.3 -120.86, 41.27 -124.92 C46.25 -128.99, 49.49 -131.47, 54.78 -127.48 C60.06 -123.49, 68.78 -107.65, 72.99 -100.97 C77.2 -94.28, 76.81 -95.1, 80.05 -87.36 C83.28 -79.62, 88.81 -61.54, 92.39 -54.54 C95.98 -47.53, 97.29 -48.15, 101.55 -45.31 C105.8 -42.47, 110.24 -40.83, 117.93 -37.48 C125.63 -34.14, 138.94 -26.98, 147.73 -25.23 C156.51 -23.48, 163.86 -27.23, 170.65 -26.98 C177.43 -26.73, 182.53 -23.74, 188.41 -23.72 C194.3 -23.71, 203.09 -26.25, 205.95 -26.88 M-0.67 1.46 C-0.29 -0.47, 1.86 -4.78, 3.39 -13.17 C4.92 -21.56, 6.31 -40.31, 8.49 -48.88 C10.67 -57.45, 13.46 -55.54, 16.49 -64.61 C19.51 -73.67, 22.32 -93.12, 26.65 -103.28 C30.98 -113.45, 37.66 -121.88, 42.46 -125.6 C47.26 -129.32, 50.03 -129.68, 55.47 -125.6 C60.92 -121.52, 71.26 -107.28, 75.12 -101.11 C78.98 -94.95, 75.64 -96.28, 78.63 -88.6 C81.62 -80.92, 89.26 -62.42, 93.05 -55.04 C96.85 -47.66, 97.49 -47.12, 101.39 -44.31 C105.29 -41.49, 108.75 -41.17, 116.48 -38.16 C124.2 -35.16, 138.77 -28.09, 147.73 -26.29 C156.69 -24.48, 163.43 -27.64, 170.23 -27.34 C177.04 -27.05, 182.45 -24.78, 188.56 -24.51 C194.68 -24.23, 203.73 -25.25, 206.93 -25.7" stroke="#364fc7" stroke-width="1" fill="none"></path></g></g><g transform="translate(167.1119373522314 203.49603305170194) rotate(0 22.5 12.5)"><text x="0" y="18" font-family="Virgil, Segoe UI Emoji" font-size="20px" fill="#000000" text-anchor="start" style="white-space: pre;" direction="ltr">Time</text></g><g transform="translate(17.289397069028155 105.35052523920194) rotate(270.276618259132 58.5 12.5)"><text x="0" y="18" font-family="Virgil, Segoe UI Emoji" font-size="20px" fill="#000000" text-anchor="start" style="white-space: pre;" direction="ltr">biomarker x1</text></g><g transform="translate(353.9593364916708 61.11898923237504) rotate(0 22.5 10)"><text x="0" y="14" font-family="Virgil, Segoe UI Emoji" font-size="16px" fill="#364fc7" text-anchor="start" style="white-space: pre;" direction="ltr">subj 1</text></g><g transform="translate(354.6127788744833 84.36648679096879) rotate(0 26 10)"><text x="0" y="14" font-family="Virgil, Segoe UI Emoji" font-size="16px" fill="#e67700" text-anchor="start" style="white-space: pre;" direction="ltr">subj 2</text></g><g transform="translate(356.2687847338583 109.96142697651567) rotate(0 25.5 10)"><text x="0" y="14" font-family="Virgil, Segoe UI Emoji" font-size="16px" fill="#5c940d" text-anchor="start" style="white-space: pre;" direction="ltr">subj 3</text></g><g transform="translate(357.5224468432333 134.70861935932817) rotate(0 25 10)"><text x="0" y="14" font-family="Virgil, Segoe UI Emoji" font-size="16px" fill="#a61e4d" text-anchor="start" style="white-space: pre;" direction="ltr">subj 4</text></g><g stroke-linecap="round"><g transform="translate(109.43235150357896 167.05992331589596) rotate(0 19.248088036443676 -60.41781915322031)"><path d="M-0.73 0.93 C-0.22 -0.5, 1.34 -1.81, 2.63 -8.97 C3.91 -16.13, 5.74 -34.41, 6.98 -42.02 C8.22 -49.63, 8.38 -50.31, 10.06 -54.65 C11.74 -58.99, 15.3 -63.19, 17.08 -68.06 C18.85 -72.93, 19.24 -77.44, 20.73 -83.85 C22.23 -90.27, 22.96 -100.31, 26.05 -106.52 C29.13 -112.74, 37.11 -118.95, 39.23 -121.15 M1.08 0.37 C1.44 -1.34, 0.1 -3.19, 1.48 -10.57 C2.86 -17.95, 7.88 -36.66, 9.35 -43.9 C10.82 -51.13, 8.67 -49.99, 10.29 -53.96 C11.91 -57.93, 17.07 -62.54, 19.05 -67.69 C21.04 -72.84, 21 -78.14, 22.21 -84.86 C23.41 -91.58, 23.55 -101.86, 26.29 -108.01 C29.02 -114.16, 36.8 -119.66, 38.63 -121.76" stroke="#364fc7" stroke-width="1" fill="none"></path></g></g><g stroke-linecap="round"><g transform="translate(109.53442817853158 168.1049746594092) rotate(0 49.97233145436189 -44.76238366564672)"><path d="M-1.12 0.86 C-0.64 -0.33, 1.83 -2.81, 2.99 -7.18 C4.15 -11.55, 4.07 -19.27, 5.83 -25.36 C7.58 -31.45, 10.81 -37.82, 13.54 -43.74 C16.27 -49.66, 18.66 -54.24, 22.23 -60.89 C25.79 -67.55, 30.57 -78.97, 34.91 -83.67 C39.25 -88.36, 44.37 -88.55, 48.24 -89.06 C52.12 -89.58, 54.6 -87.95, 58.18 -86.77 C61.76 -85.59, 66.27 -84.72, 69.73 -81.99 C73.19 -79.26, 76.18 -74.99, 78.96 -70.38 C81.73 -65.77, 84.07 -58.6, 86.39 -54.32 C88.72 -50.04, 90.47 -47.16, 92.9 -44.68 C95.32 -42.2, 99.7 -40.44, 100.93 -39.45 M0.5 0.27 C0.84 -1.29, 1.56 -5.01, 2.28 -9.1 C3 -13.2, 3.41 -18.16, 4.82 -24.3 C6.23 -30.43, 8.06 -39.91, 10.73 -45.91 C13.41 -51.91, 17.17 -54.35, 20.88 -60.31 C24.59 -66.26, 28.37 -76.66, 33 -81.65 C37.63 -86.64, 44.08 -89.44, 48.65 -90.25 C53.21 -91.06, 57.08 -88.2, 60.39 -86.49 C63.71 -84.79, 65.3 -82.62, 68.53 -80.01 C71.76 -77.4, 76.8 -75.28, 79.78 -70.84 C82.76 -66.4, 83.94 -57.77, 86.41 -53.39 C88.88 -49.01, 92.16 -46.75, 94.6 -44.58 C97.04 -42.4, 99.7 -41.32, 101.06 -40.33" stroke="#e67700" stroke-width="1" fill="none"></path></g></g><g stroke-linecap="round"><g transform="translate(106.81118747067183 176.56013786371796) rotate(0 89.27571857979129 -39.376919730360726)"><path d="M-0.97 0.23 C-0.42 -1.05, 1.07 -3.18, 2.33 -6.75 C3.6 -10.33, 5.46 -17.26, 6.61 -21.22 C7.76 -25.18, 7.74 -26.52, 9.24 -30.5 C10.74 -34.49, 13.45 -40.13, 15.6 -45.13 C17.75 -50.13, 19.1 -55.78, 22.15 -60.49 C25.2 -65.2, 30.04 -70.4, 33.88 -73.4 C37.72 -76.41, 40.56 -78, 45.2 -78.51 C49.85 -79.02, 57.3 -78.7, 61.77 -76.45 C66.24 -74.19, 69.1 -68.67, 72.03 -64.97 C74.95 -61.27, 76.42 -58.08, 79.33 -54.23 C82.25 -50.38, 87.09 -45.55, 89.51 -41.88 C91.93 -38.21, 90.11 -35.2, 93.86 -32.23 C97.6 -29.26, 105.99 -26.19, 111.97 -24.08 C117.96 -21.97, 123.24 -20.69, 129.76 -19.57 C136.29 -18.45, 144.91 -17.59, 151.1 -17.35 C157.29 -17.12, 162.16 -18.15, 166.9 -18.13 C171.63 -18.12, 177.42 -17.29, 179.52 -17.26 M0.73 -0.69 C1.2 -2.44, 0.43 -5.47, 1.34 -8.77 C2.25 -12.07, 4.91 -16.5, 6.19 -20.48 C7.48 -24.46, 7.17 -28.66, 9.03 -32.64 C10.89 -36.63, 14.95 -39.57, 17.34 -44.38 C19.73 -49.2, 20.57 -56.49, 23.35 -61.51 C26.14 -66.53, 30.62 -71.69, 34.05 -74.5 C37.48 -77.32, 39.49 -77.88, 43.91 -78.38 C48.34 -78.89, 55.73 -79.78, 60.6 -77.52 C65.47 -75.25, 69.98 -68.85, 73.15 -64.8 C76.31 -60.76, 77.08 -56.93, 79.59 -53.22 C82.1 -49.51, 85.9 -45.94, 88.21 -42.54 C90.52 -39.14, 89.11 -35.79, 93.46 -32.82 C97.82 -29.86, 108.23 -26.87, 114.35 -24.75 C120.47 -22.63, 123.9 -21.45, 130.19 -20.1 C136.48 -18.75, 146.19 -17.1, 152.09 -16.66 C157.99 -16.23, 161.19 -17.49, 165.6 -17.5 C170 -17.52, 176.38 -16.68, 178.51 -16.75" stroke="#a61e4d" stroke-width="1" fill="none"></path></g></g><g stroke-linecap="round"><g transform="translate(148.13424470315283 194.14849087626544) rotate(0 0.0902643377129948 -73.40317466042268)"><path d="M0 0 C0.03 -21.49, 0.15 -104.46, 0.17 -128.93 C0.2 -153.4, 0.14 -143.83, 0.14 -146.81" stroke="#364fc7" stroke-width="1.5" fill="none" stroke-dasharray="1.5 7"></path></g><g transform="translate(148.13424470315283 194.14849087626544) rotate(0 0.0902643377129948 -73.40317466042268)"><path d="M0.14 -146.81 L6.84 -133.39 L-5.83 -133.04 L0.14 -146.81" stroke="none" stroke-width="0" fill="#364fc7" fill-rule="evenodd"></path><path d="M0.14 -146.81 C2.27 -142.54, 4.41 -138.27, 6.84 -133.39 M6.84 -133.39 C3.77 -133.31, 0.69 -133.22, -5.83 -133.04 M-5.83 -133.04 C-3.76 -137.83, -1.68 -142.61, 0.14 -146.81 M0.14 -146.81 C0.14 -146.81, 0.14 -146.81, 0.14 -146.81" stroke="#364fc7" stroke-width="1.5" fill="none"></path></g></g><g stroke-linecap="round"><g transform="translate(209.1492778470922 192.27728476609127) rotate(0 0.4612223307290719 -31.252365112304744)"><path d="M0 0 C0.07 -4.45, 0.29 -16.3, 0.45 -26.71 C0.6 -37.13, 0.84 -56.54, 0.92 -62.5" stroke="#e67700" stroke-width="1.5" fill="none" stroke-dasharray="1.5 7"></path></g><g transform="translate(209.1492778470922 192.27728476609127) rotate(0 0.4612223307290719 -31.252365112304744)"><path d="M0.92 -62.5 L7.09 -48.83 L-5.59 -48.99 L0.92 -62.5" stroke="none" stroke-width="0" fill="#e67700" fill-rule="evenodd"></path><path d="M0.92 -62.5 C2.47 -59.08, 4.01 -55.66, 7.09 -48.83 M7.09 -48.83 C2.12 -48.89, -2.85 -48.96, -5.59 -48.99 M-5.59 -48.99 C-3.59 -53.15, -1.58 -57.31, 0.92 -62.5 M0.92 -62.5 C0.92 -62.5, 0.92 -62.5, 0.92 -62.5" stroke="#e67700" stroke-width="1.5" fill="none"></path></g></g><g stroke-linecap="round"><g transform="translate(286.53800890769867 194.23504751319138) rotate(0 0.2420598810368233 -16.079274957830307)"><path d="M0 0 C0.03 -1.5, 0.12 -3.65, 0.2 -9.01 C0.28 -14.37, 0.44 -28.3, 0.48 -32.16" stroke="#a61e4d" stroke-width="1.5" fill="none" stroke-dasharray="1.5 7"></path></g><g transform="translate(286.53800890769867 194.23504751319138) rotate(0 0.2420598810368233 -16.079274957830307)"><path d="M0.48 -32.16 L6.66 -18.49 L-6.02 -18.64 L0.48 -32.16" stroke="none" stroke-width="0" fill="#a61e4d" fill-rule="evenodd"></path><path d="M0.48 -32.16 C2.64 -27.39, 4.79 -22.62, 6.66 -18.49 M6.66 -18.49 C3.28 -18.53, -0.09 -18.57, -6.02 -18.64 M-6.02 -18.64 C-4.22 -22.37, -2.43 -26.1, 0.48 -32.16 M0.48 -32.16 C0.48 -32.16, 0.48 -32.16, 0.48 -32.16" stroke="#a61e4d" stroke-width="1.5" fill="none"></path></g></g><g stroke-linecap="round"><g transform="translate(322.1603363076749 192.53722517358437) rotate(0 -0.821542450876052 -69.3758808482778)"><path d="M0 0 C-0.11 -6.48, -0.4 -15.77, -0.67 -38.89 C-0.94 -62.02, -1.48 -122.11, -1.64 -138.75" stroke="#5c940d" stroke-width="1.5" fill="none" stroke-dasharray="1.5 7"></path></g><g transform="translate(322.1603363076749 192.53722517358437) rotate(0 -0.821542450876052 -69.3758808482778)"><path d="M6.36 -138.75 C6.36 -138.29, 6.32 -137.82, 6.24 -137.36 C6.15 -136.91, 6.03 -136.45, 5.87 -136.02 C5.72 -135.58, 5.52 -135.15, 5.29 -134.75 C5.05 -134.35, 4.78 -133.96, 4.49 -133.61 C4.19 -133.25, 3.85 -132.92, 3.5 -132.62 C3.14 -132.33, 2.76 -132.06, 2.36 -131.82 C1.96 -131.59, 1.53 -131.39, 1.09 -131.23 C0.66 -131.08, 0.2 -130.95, -0.25 -130.87 C-0.71 -130.79, -1.18 -130.75, -1.64 -130.75 C-2.11 -130.75, -2.58 -130.79, -3.03 -130.87 C-3.49 -130.95, -3.94 -131.08, -4.38 -131.23 C-4.81 -131.39, -5.24 -131.59, -5.64 -131.82 C-6.04 -132.06, -6.43 -132.33, -6.79 -132.62 C-7.14 -132.92, -7.47 -133.25, -7.77 -133.61 C-8.07 -133.96, -8.34 -134.35, -8.57 -134.75 C-8.8 -135.15, -9 -135.58, -9.16 -136.02 C-9.32 -136.45, -9.44 -136.91, -9.52 -137.36 C-9.6 -137.82, -9.64 -138.29, -9.64 -138.75 C-9.64 -139.21, -9.6 -139.68, -9.52 -140.14 C-9.44 -140.6, -9.32 -141.05, -9.16 -141.49 C-9 -141.92, -8.8 -142.35, -8.57 -142.75 C-8.34 -143.15, -8.07 -143.54, -7.77 -143.89 C-7.47 -144.25, -7.14 -144.58, -6.79 -144.88 C-6.43 -145.18, -6.04 -145.45, -5.64 -145.68 C-5.24 -145.91, -4.81 -146.11, -4.38 -146.27 C-3.94 -146.43, -3.49 -146.55, -3.03 -146.63 C-2.58 -146.71, -2.11 -146.75, -1.64 -146.75 C-1.18 -146.75, -0.71 -146.71, -0.25 -146.63 C0.2 -146.55, 0.66 -146.43, 1.09 -146.27 C1.53 -146.11, 1.96 -145.91, 2.36 -145.68 C2.76 -145.45, 3.14 -145.18, 3.5 -144.88 C3.85 -144.58, 4.19 -144.25, 4.49 -143.89 C4.78 -143.54, 5.05 -143.15, 5.29 -142.75 C5.52 -142.35, 5.72 -141.92, 5.87 -141.49 C6.03 -141.05, 6.15 -140.6, 6.24 -140.14 C6.32 -139.68, 6.34 -138.98, 6.36 -138.75 C6.38 -138.52, 6.38 -138.98, 6.36 -138.75" stroke="none" stroke-width="0" fill="#5c940d"></path></g></g><g stroke-linecap="round"><g transform="translate(507.2788600507557 36.50290257035499) rotate(0 0.7558277987519659 89.0289593990409)"><path d="M0.28 0.41 C0.85 29.91, 2.25 147.67, 2.54 177.1 M-1.03 -0.42 C-0.45 29.25, 1.7 148.73, 2.12 178.48" stroke="#000000" stroke-width="1" fill="none"></path></g></g><g stroke-linecap="round"><g transform="translate(462.458986272856 186.61126375816627) rotate(0 135.55701621668646 -0.8837131051261053)"><path d="M0.41 1.01 C45.72 0.81, 226.71 -0.69, 271.95 -0.91 M-0.84 0.49 C44.29 -0.09, 225.57 -2.35, 270.85 -2.78" stroke="#000000" stroke-width="1" fill="none"></path></g></g><g stroke-linecap="round"><g transform="translate(517.9627827010187 156.3947647961595) rotate(0 102.9393736567348 -39.50816733203828)"><path d="M1.01 -0.29 C1.5 -1.76, 1.68 -3.51, 3.23 -8.41 C4.78 -13.3, 8.3 -24.5, 10.3 -29.67 C12.31 -34.84, 12.54 -33.98, 15.26 -39.45 C17.97 -44.92, 22.27 -56.25, 26.6 -62.48 C30.94 -68.71, 36.76 -74.4, 41.24 -76.82 C45.73 -79.23, 48.23 -79.44, 53.52 -76.96 C58.81 -74.48, 68.73 -65.58, 72.99 -61.92 C77.24 -58.26, 75.88 -59.95, 79.04 -55.02 C82.2 -50.1, 88.12 -36.86, 91.93 -32.36 C95.75 -27.86, 97.46 -29.75, 101.93 -28.02 C106.41 -26.29, 111.28 -24.24, 118.79 -21.98 C126.3 -19.72, 138.59 -15.6, 147 -14.47 C155.4 -13.35, 162.32 -15.29, 169.22 -15.23 C176.12 -15.16, 182.44 -13.75, 188.38 -14.06 C194.32 -14.37, 201.94 -16.72, 204.87 -17.11" stroke="#5c940d" stroke-width="1.5" fill="none" stroke-dasharray="8 9"></path></g></g><g stroke-linecap="round"><g stroke-opacity="0.3" fill-opacity="0.3" transform="translate(518.6617420516046 168.18628396119857) rotate(0 102.55030939318237 -39.089787418506035)"><path d="M-0.29 0.48 C0.03 -0.83, 0.74 -1.79, 2.34 -6.9 C3.93 -12.01, 6.94 -24.78, 9.27 -30.17 C11.61 -35.57, 13.55 -33.78, 16.33 -39.27 C19.11 -44.76, 21.52 -56.85, 25.94 -63.1 C30.36 -69.35, 37.56 -74.45, 42.85 -76.77 C48.14 -79.1, 52.45 -79.39, 57.69 -77.06 C62.93 -74.73, 70.83 -66.53, 74.28 -62.77 C77.72 -59.01, 75.13 -59.29, 78.37 -54.49 C81.6 -49.69, 89.69 -38.53, 93.67 -33.96 C97.66 -29.4, 98.26 -28.99, 102.29 -27.08 C106.33 -25.17, 110.1 -24.33, 117.87 -22.5 C125.64 -20.67, 140.01 -17.06, 148.91 -16.1 C157.8 -15.14, 164.55 -16.85, 171.24 -16.75 C177.92 -16.65, 183.31 -15.54, 189 -15.5 C194.7 -15.47, 202.54 -16.32, 205.39 -16.53" stroke="#a61e4d" stroke-width="1.5" fill="none" stroke-dasharray="8 9"></path></g></g><g stroke-linecap="round"><g stroke-opacity="0.2" fill-opacity="0.2" transform="translate(522.7125298999998 150.67792214479232) rotate(0 103.22924345396456 -40.16184821956858)"><path d="M0.48 -0.41 C0.96 -1.68, 2.46 -3.14, 3.85 -7.93 C5.23 -12.71, 6.66 -23.76, 8.77 -29.1 C10.88 -34.43, 13.75 -34.4, 16.51 -39.93 C19.27 -45.47, 21.31 -56.24, 25.32 -62.3 C29.33 -68.37, 34.98 -73.51, 40.55 -76.33 C46.12 -79.14, 53.07 -81.04, 58.75 -79.18 C64.44 -77.32, 71.06 -69.5, 74.66 -65.17 C78.27 -60.84, 77.1 -58.31, 80.37 -53.18 C83.64 -48.06, 90.48 -38.77, 94.29 -34.42 C98.11 -30.08, 99.47 -29.18, 103.23 -27.11 C106.99 -25.03, 109.51 -24.14, 116.86 -21.97 C124.2 -19.8, 138.47 -15.06, 147.28 -14.08 C156.09 -13.11, 163 -15.97, 169.72 -16.12 C176.43 -16.27, 181.52 -14.94, 187.56 -14.98 C193.6 -15.03, 202.95 -16.28, 205.97 -16.38" stroke="#e67700" stroke-width="1.5" fill="none" stroke-dasharray="8 9"></path></g></g><g stroke-linecap="round"><g stroke-opacity="0.1" fill-opacity="0.1" transform="translate(521.8122454991664 159.93984157098748) rotate(0 102.85529147125783 -64.40779630021513)"><path d="M-0.41 1.1 C0.11 -1.22, 1.11 -5.34, 2.82 -13.45 C4.53 -21.57, 7.67 -38.88, 9.84 -47.6 C12.02 -56.31, 13.14 -56.48, 15.85 -65.74 C18.56 -74.99, 21.67 -93, 26.12 -103.14 C30.57 -113.28, 37.73 -122.58, 42.54 -126.58 C47.35 -130.59, 49.96 -131.27, 55 -127.18 C60.04 -123.08, 68.48 -108.5, 72.75 -102 C77.03 -95.49, 77.36 -96.21, 80.64 -88.15 C83.92 -80.1, 88.67 -60.6, 92.43 -53.66 C96.19 -46.72, 98.82 -49.14, 103.21 -46.51 C107.6 -43.88, 111.09 -41.43, 118.77 -37.88 C126.45 -34.32, 140.7 -26.84, 149.3 -25.16 C157.89 -23.49, 163.88 -28.14, 170.34 -27.85 C176.8 -27.55, 182.12 -23.51, 188.08 -23.39 C194.04 -23.26, 202.99 -26.49, 206.12 -27.08" stroke="#364fc7" stroke-width="1.5" fill="none" stroke-dasharray="8 9"></path></g></g><g transform="translate(579.4564655623468 196.08104409303382) rotate(0 22.5 12.5)"><text x="0" y="18" font-family="Virgil, Segoe UI Emoji" font-size="20px" fill="#000000" text-anchor="start" style="white-space: pre;" direction="ltr">Time</text></g><g transform="translate(425.1556507420132 93.43558872481094) rotate(270.276618259132 63 12.5)"><text x="0" y="18" font-family="Virgil, Segoe UI Emoji" font-size="20px" fill="#000000" text-anchor="start" style="white-space: pre;" direction="ltr">biomarker x2</text></g><g transform="translate(766.3038647017862 53.70400027370761) rotate(0 22.5 10)"><text x="0" y="14" font-family="Virgil, Segoe UI Emoji" font-size="16px" fill="#364fc7" text-anchor="start" style="white-space: pre;" direction="ltr">subj 1</text></g><g transform="translate(766.9573070845987 76.95149783230136) rotate(0 26 10)"><text x="0" y="14" font-family="Virgil, Segoe UI Emoji" font-size="16px" fill="#e67700" text-anchor="start" style="white-space: pre;" direction="ltr">subj 2</text></g><g transform="translate(768.6133129439737 102.54643801784823) rotate(0 25.5 10)"><text x="0" y="14" font-family="Virgil, Segoe UI Emoji" font-size="16px" fill="#5c940d" text-anchor="start" style="white-space: pre;" direction="ltr">subj 3</text></g><g transform="translate(769.8669750533487 127.29363040066073) rotate(0 25 10)"><text x="0" y="14" font-family="Virgil, Segoe UI Emoji" font-size="16px" fill="#a61e4d" text-anchor="start" style="white-space: pre;" direction="ltr">subj 4</text></g><g stroke-linecap="round"><g transform="translate(521.7768797136943 159.64493435722852) rotate(0 18.398964259739614 -59.764364415305636)"><path d="M-0.46 0.34 C-0.29 -1.21, 0.61 -1.98, 1.85 -9.13 C3.1 -16.29, 5.73 -34.94, 7.02 -42.59 C8.3 -50.24, 7.94 -50.99, 9.57 -55.05 C11.2 -59.11, 15.06 -62.1, 16.82 -66.94 C18.57 -71.78, 18.3 -77.66, 20.09 -84.09 C21.89 -90.52, 24.73 -99.55, 27.59 -105.51 C30.45 -111.47, 35.6 -117.54, 37.26 -119.87" stroke="#364fc7" stroke-width="1.5" fill="none" stroke-dasharray="8 9"></path></g></g><g stroke-linecap="round"><g transform="translate(521.8789563886468 160.68998570074177) rotate(0 51.12581380615859 -46.05327247112132)"><path d="M0.34 -1.15 C0.88 -2.5, 2.32 -4.49, 3.37 -8.53 C4.41 -12.57, 5.31 -19.29, 6.61 -25.4 C7.91 -31.5, 8.44 -39.08, 11.18 -45.15 C13.93 -51.21, 19.25 -55.69, 23.07 -61.79 C26.89 -67.89, 29.7 -76.96, 34.09 -81.75 C38.49 -86.54, 45.17 -89.35, 49.45 -90.53 C53.72 -91.7, 56.32 -90.28, 59.74 -88.82 C63.16 -87.36, 66.74 -84.67, 69.96 -81.79 C73.19 -78.91, 76.37 -76.14, 79.09 -71.56 C81.81 -66.98, 83.81 -58.56, 86.3 -54.3 C88.78 -50.05, 91.39 -48.48, 93.99 -46.02 C96.59 -43.56, 100.9 -40.75, 101.91 -39.54" stroke="#e67700" stroke-width="1.5" fill="none" stroke-dasharray="8 9"></path></g></g><g stroke-linecap="round"><g transform="translate(519.1557156807872 169.14514890505052) rotate(0 89.33557837938497 -38.868979425167595)"><path d="M-1.15 0.84 C-0.84 -0.33, 0.35 -2.94, 1.45 -6.63 C2.54 -10.32, 4.09 -17.39, 5.42 -21.32 C6.75 -25.25, 7.69 -26.1, 9.44 -30.21 C11.19 -34.32, 13.61 -41.05, 15.92 -45.98 C18.24 -50.9, 20.38 -55.25, 23.33 -59.77 C26.28 -64.29, 30.04 -70.03, 33.63 -73.12 C37.21 -76.2, 40.36 -77.65, 44.83 -78.26 C49.3 -78.87, 56.2 -78.7, 60.42 -76.8 C64.64 -74.89, 67 -70.59, 70.15 -66.83 C73.31 -63.07, 76.23 -58.6, 79.36 -54.23 C82.49 -49.87, 86.36 -44.04, 88.95 -40.62 C91.53 -37.2, 90.74 -36.49, 94.87 -33.72 C98.99 -30.95, 107.85 -26.16, 113.69 -24.01 C119.54 -21.85, 123.53 -21.89, 129.92 -20.8 C136.3 -19.71, 145.87 -18.11, 152 -17.47 C158.13 -16.83, 162.05 -16.87, 166.68 -16.97 C171.32 -17.07, 177.88 -18, 179.83 -18.07" stroke="#a61e4d" stroke-width="1.5" fill="none" stroke-dasharray="8 9"></path></g></g><g stroke-linecap="round"><g transform="translate(560.2882415005078 186.92398246772802) rotate(0 0.0902643377129948 -73.40317466042268)"><path d="M0 0 C0.03 -21.49, 0.15 -104.46, 0.17 -128.93 C0.2 -153.4, 0.14 -143.83, 0.14 -146.81" stroke="#364fc7" stroke-width="1.5" fill="none" stroke-dasharray="1.5 7"></path></g><g transform="translate(560.2882415005078 186.92398246772802) rotate(0 0.0902643377129948 -73.40317466042268)"><path d="M0.14 -146.81 L6.84 -133.39 L-5.83 -133.04 L0.14 -146.81" stroke="none" stroke-width="0" fill="#364fc7" fill-rule="evenodd"></path><path d="M0.14 -146.81 C2.34 -142.4, 4.55 -137.99, 6.84 -133.39 M6.84 -133.39 C2.22 -133.26, -2.4 -133.14, -5.83 -133.04 M-5.83 -133.04 C-4.01 -137.23, -2.2 -141.41, 0.14 -146.81 M0.14 -146.81 C0.14 -146.81, 0.14 -146.81, 0.14 -146.81" stroke="#364fc7" stroke-width="1.5" fill="none"></path></g></g><g stroke-linecap="round"><g transform="translate(621.3033255070771 185.0527763575542) rotate(0 0.4612223307290719 -31.252365112304744)"><path d="M0 0 C0.07 -4.45, 0.29 -16.3, 0.45 -26.71 C0.6 -37.13, 0.84 -56.54, 0.92 -62.5" stroke="#e67700" stroke-width="1.5" fill="none" stroke-dasharray="1.5 7"></path></g><g transform="translate(621.3033255070771 185.0527763575542) rotate(0 0.4612223307290719 -31.252365112304744)"><path d="M0.92 -62.5 L7.09 -48.83 L-5.59 -48.99 L0.92 -62.5" stroke="none" stroke-width="0" fill="#e67700" fill-rule="evenodd"></path><path d="M0.92 -62.5 C2.18 -59.72, 3.43 -56.93, 7.09 -48.83 M7.09 -48.83 C2.49 -48.89, -2.1 -48.95, -5.59 -48.99 M-5.59 -48.99 C-3.82 -52.67, -2.05 -56.35, 0.92 -62.5 M0.92 -62.5 C0.92 -62.5, 0.92 -62.5, 0.92 -62.5" stroke="#e67700" stroke-width="1.5" fill="none"></path></g></g><g stroke-linecap="round"><g transform="translate(698.8825371178137 186.82005855452348) rotate(0 0.24205988103688014 -16.079274957830307)"><path d="M0 0 C0.03 -1.5, 0.12 -3.65, 0.2 -9.01 C0.28 -14.37, 0.44 -28.3, 0.48 -32.16" stroke="#a61e4d" stroke-width="1.5" fill="none" stroke-dasharray="1.5 7"></path></g><g transform="translate(698.8825371178137 186.82005855452348) rotate(0 0.24205988103688014 -16.079274957830307)"><path d="M0.48 -32.16 L6.66 -18.49 L-6.02 -18.64 L0.48 -32.16" stroke="none" stroke-width="0" fill="#a61e4d" fill-rule="evenodd"></path><path d="M0.48 -32.16 C2.77 -27.11, 5.05 -22.05, 6.66 -18.49 M6.66 -18.49 C4.08 -18.52, 1.5 -18.55, -6.02 -18.64 M-6.02 -18.64 C-3.63 -23.6, -1.25 -28.56, 0.48 -32.16 M0.48 -32.16 C0.48 -32.16, 0.48 -32.16, 0.48 -32.16" stroke="#a61e4d" stroke-width="1.5" fill="none"></path></g></g><g stroke-linecap="round"><g transform="translate(734.50486451779 185.12223621491705) rotate(0 -0.8215424508759952 -69.37588084827786)"><path d="M0 0 C-0.11 -6.48, -0.4 -15.77, -0.67 -38.89 C-0.94 -62.02, -1.48 -122.11, -1.64 -138.75" stroke="#5c940d" stroke-width="1.5" fill="none" stroke-dasharray="1.5 7"></path></g><g transform="translate(734.50486451779 185.12223621491705) rotate(0 -0.8215424508759952 -69.37588084827786)"><path d="M6.36 -138.75 C6.36 -138.29, 6.32 -137.82, 6.24 -137.36 C6.15 -136.91, 6.03 -136.45, 5.87 -136.02 C5.72 -135.58, 5.52 -135.15, 5.29 -134.75 C5.05 -134.35, 4.78 -133.96, 4.49 -133.61 C4.19 -133.25, 3.85 -132.92, 3.5 -132.62 C3.14 -132.33, 2.76 -132.06, 2.36 -131.82 C1.96 -131.59, 1.53 -131.39, 1.09 -131.23 C0.66 -131.08, 0.2 -130.95, -0.25 -130.87 C-0.71 -130.79, -1.18 -130.75, -1.64 -130.75 C-2.11 -130.75, -2.58 -130.79, -3.03 -130.87 C-3.49 -130.95, -3.94 -131.08, -4.38 -131.23 C-4.81 -131.39, -5.24 -131.59, -5.64 -131.82 C-6.04 -132.06, -6.43 -132.33, -6.79 -132.62 C-7.14 -132.92, -7.47 -133.25, -7.77 -133.61 C-8.07 -133.96, -8.34 -134.35, -8.57 -134.75 C-8.8 -135.15, -9 -135.58, -9.16 -136.02 C-9.32 -136.45, -9.44 -136.91, -9.52 -137.36 C-9.6 -137.82, -9.64 -138.29, -9.64 -138.75 C-9.64 -139.21, -9.6 -139.68, -9.52 -140.14 C-9.44 -140.6, -9.32 -141.05, -9.16 -141.49 C-9 -141.92, -8.8 -142.35, -8.57 -142.75 C-8.34 -143.15, -8.07 -143.54, -7.77 -143.89 C-7.47 -144.25, -7.14 -144.58, -6.79 -144.88 C-6.43 -145.18, -6.04 -145.45, -5.64 -145.68 C-5.24 -145.91, -4.81 -146.11, -4.38 -146.27 C-3.94 -146.43, -3.49 -146.55, -3.03 -146.63 C-2.58 -146.71, -2.11 -146.75, -1.64 -146.75 C-1.18 -146.75, -0.71 -146.71, -0.25 -146.63 C0.2 -146.55, 0.66 -146.43, 1.09 -146.27 C1.53 -146.11, 1.96 -145.91, 2.36 -145.68 C2.76 -145.45, 3.14 -145.18, 3.5 -144.88 C3.85 -144.58, 4.19 -144.25, 4.49 -143.89 C4.78 -143.54, 5.05 -143.15, 5.29 -142.75 C5.52 -142.35, 5.72 -141.92, 5.87 -141.49 C6.03 -141.05, 6.15 -140.6, 6.24 -140.14 C6.32 -139.68, 6.34 -138.98, 6.36 -138.75 C6.38 -138.52, 6.38 -138.98, 6.36 -138.75" stroke="none" stroke-width="0" fill="#5c940d"></path></g></g><g transform="translate(45.69912442294009 295.5687210281176) rotate(0 216.50000000000003 112.5)"><text x="0" y="18" font-family="Virgil, Segoe UI Emoji" font-size="20px" fill="#000000" text-anchor="start" style="white-space: pre;" direction="ltr">Partially observed data</text><text x="0" y="43" font-family="Virgil, Segoe UI Emoji" font-size="20px" fill="#000000" text-anchor="start" style="white-space: pre;" direction="ltr">Higher order profile (i.e. curvature)</text><text x="0" y="68" font-family="Virgil, Segoe UI Emoji" font-size="20px" fill="#000000" text-anchor="start" style="white-space: pre;" direction="ltr">Temporal correlation ==&gt; Within subject</text><text x="0" y="93" font-family="Virgil, Segoe UI Emoji" font-size="20px" fill="#000000" text-anchor="start" style="white-space: pre;" direction="ltr">Biological correlation ==&gt; Across biomarkers</text><text x="0" y="118" font-family="Virgil, Segoe UI Emoji" font-size="20px" fill="#000000" text-anchor="start" style="white-space: pre;" direction="ltr">      </text><text x="0" y="143" font-family="Virgil, Segoe UI Emoji" font-size="20px" fill="#000000" text-anchor="start" style="white-space: pre;" direction="ltr">outcomes:</text><text x="0" y="168" font-family="Virgil, Segoe UI Emoji" font-size="20px" fill="#000000" text-anchor="start" style="white-space: pre;" direction="ltr">- Primarily TTE</text><text x="0" y="193" font-family="Virgil, Segoe UI Emoji" font-size="20px" fill="#000000" text-anchor="start" style="white-space: pre;" direction="ltr">- But could be binary etc.  </text><text x="0" y="218" font-family="Virgil, Segoe UI Emoji" font-size="20px" fill="#000000" text-anchor="start" style="white-space: pre;" direction="ltr"></text></g></svg>